/* XPM */
static char *result[] = {
/* columns rows colors chars-per-pixel */
"32 32 121 2 ",
"   c #071317",
".  c #0D1617",
"X  c #0D1618",
"o  c #0F1819",
"O  c #131A1B",
"+  c #3B201D",
"@  c #191F22",
"#  c #1C2123",
"$  c #1D2927",
"%  c #1D2C29",
"&  c #222525",
"*  c #25272C",
"=  c #212C29",
"-  c #2A2D2D",
";  c #3D3227",
":  c #3F3B2F",
">  c #2F2E39",
",  c #302E39",
"<  c #2C3232",
"1  c #2C3A35",
"2  c #333435",
"3  c #303834",
"4  c #38353A",
"5  c #3C3A3C",
"6  c #463526",
"7  c #403C2F",
"8  c #433E34",
"9  c #403D3E",
"0  c #513F3B",
"q  c #6C3B29",
"w  c #474136",
"e  c #4C4435",
"r  c #464639",
"t  c #494238",
"y  c #524A39",
"u  c #6A533D",
"i  c #2D2D40",
"p  c #353343",
"a  c #393644",
"s  c #3D3A46",
"d  c #423D43",
"f  c #3E4149",
"g  c #464245",
"h  c #454846",
"j  c #484A47",
"k  c #434349",
"l  c #4A4549",
"z  c #4D4C4C",
"x  c #5B4645",
"c  c #514A4D",
"v  c #475246",
"b  c #495A4E",
"n  c #54504D",
"m  c #4B5754",
"M  c #4E5C54",
"N  c #545350",
"B  c #535E54",
"V  c #634945",
"C  c #6B4C46",
"Z  c #665149",
"A  c #6B524A",
"S  c #715549",
"D  c #765A4B",
"F  c #625452",
"G  c #6B5A55",
"H  c #4F6053",
"J  c #586454",
"K  c #536259",
"L  c #586558",
"P  c #5C695C",
"I  c #79664B",
"U  c #63685A",
"Y  c #736757",
"T  c #7C6554",
"R  c #7D6956",
"E  c #756E58",
"W  c #77755A",
"Q  c #5E7160",
"!  c #617362",
"~  c #A33C2B",
"^  c #B4452F",
"/  c #B6533E",
"(  c #BA553F",
")  c #D25536",
"_  c #DF5D3A",
"`  c #C36A3E",
"'  c #9D5342",
"]  c #976340",
"[  c #816353",
"{  c #857C5D",
"}  c #A56D47",
"|  c #A56D4B",
" . c #A6774B",
".. c #AB724D",
"X. c #BC7542",
"o. c #AF7A51",
"O. c #C77148",
"+. c #C67C4C",
"@. c #CA7E4D",
"#. c #9C815E",
"$. c #A28561",
"%. c #AD8D6E",
"&. c #B08D68",
"*. c #B7916F",
"=. c #CD814E",
"-. c #D48F56",
";. c #F38449",
":. c #FE9851",
">. c #C59F70",
",. c #C6A071",
"<. c #CAA373",
"1. c #D2A977",
"2. c #D0A77B",
"3. c #D4AA7B",
"4. c #D8AE7A",
"5. c #F3C287",
"6. c #F5C488",
"7. c #FFCB8D",
"8. c #FFD08F",
"9. c #FFCF90",
"0. c #FFD392",
/* pixels */
"7.7.7.7.7.7.7.7.7.7.7.7.7.7.7.7.7.7.6.7.7.7.7.7.7.7.7.7.7.7.7.7.",
"7.7.7.7.7.7.7.7.7.7.7.7.7.7.7.7.7.7.7.7.7.7.7.7.7.7.7.7.7.7.7.7.",
"7.7.7.7.7.7.7.7.7.7.7.7.7.7.7.7.7.7.7.7.7.7.7.7.7.7.7.7.7.7.7.7.",
"7.7.7.7.7.7.7.7.7.7.7.7.7.7.7.7.7.7.7.7.7.7.7.7.7.7.7.7.7.7.7.7.",
"7.7.7.7.7.7.6.7.7.7.7.7.7.7.7.7.7.7.7.7.7.7.7.7.0.7.9.9.7.7.7.7.",
"7.7.7.7.7.7.7.7.7.7.9.9.8.7.8.7.7.7.7.9.0.7.9.5.1.>.>.>.>.3.5.7.",
"7.7.7.7.7.7.7.7.7.0.9.9.0.7.7.8.7.7.7.9.9.0.0.4.I w t e e I 3.8.",
"7.7.7.7.7.7.7.5.1.>.>.>.>.,.>.>.>.>.>.>.>.,.,.#.w # # O X e <.0.",
"7.6.7.7.7.7.0.4.I w w e e e e e e e e e e e w t 5 5 5 < O e <.0.",
"7.7.7.7.8.6.4.#.r $ $ = = & = = = = = = = & = < g c c s & : #.1.",
"7.7.7.7.8.4.I r v b b b b b b b b b b b b b M b z z c w & # : e ",
"7.7.7.5.3.#.r 1 H ! ! ! ! ! ! ! ! ! ! ! ! ! ! P n j d 4 - # O X ",
"7.7.0.4.I r v H Q ! ! Q ! ! ! ! Q Q ! Q ! ! ! P n 9 - - 4 2 # X ",
"7.5.4.#.8 < M ! Q Q ! Q ! U Q Q Q Q Q Q Q Q Q P B g - < g r & O ",
"9.3.I 8 5 h L ! Q Q Q Q Q Q Q Q ! U Q Q Q Q ! Q U B j 9 l 9 = O ",
"0.>.e @ 5 N P Q ! Q Q Q Q Q Q Q ! Q Q Q Q Q U ! ! L j d 9 2 # . ",
"0.,.e @ a N P ! Q Q Q Q Q Q Q Q Q Q Q Q Q Q Q Q ! H 3 & & # O . ",
"0.,.y # 5 N P Q Q Q Q Q Q Q Q Q Q Q Q Q Q Q Q Q ! H 1 # O # 8 y ",
"0.<.y @ 5 n P Q Q Q Q Q Q Q Q Q Q Q Q Q Q Q Q Q ! L j 2 O 7 #.1.",
"<.$.8 * 9 N P ! Q Q Q Q Q Q Q Q Q Q Q Q Q Q Q Q Q P N d - e $.1.",
"e t 4 4 l N P ! Q Q Q Q Q Q Q Q Q Q Q Q Q Q Q Q Q U N d 4 4 0 y ",
"X @ , s k z B U E T R Y R T Y T T T T Y T E T E U B N l d , @ X ",
"o @ , s s d z A ' ( ( ( / / / / / / / / ( ( / ' A m z l s > @ X ",
"O @ , a a s d C ( ) ^ ~ ~ ^ ) _ _ ) ^ ^ ~ ^ ) ( C l l l s > # O ",
"O @ > p a p a C O.` q + + q O.;.;.` q + + q ` O.C s k k s , @ O ",
"O * 0 C C x d Z o. .y % % e  .-.-. .e % % e  .o.Z d A D A 0 & O ",
"O ; ] @.@...Z c W W L b b J W { { W J M b J W W n Z ..@.@.] 6 X ",
". 6 X.:.:.=.D z m K K L L K H H H H K K L L K m l S @.:.:.X.6   ",
"  6 X.:.:.=.D k f f f k k f f f f f f f f f f s a C +.:.:.X.6   ",
"e u } +.+.| Z c F G G G G G G G G G G G G G G G G [ ..+.+.| C e ",
",.&.T V V x d F %.3.2.2.2.2.2.2.2.2.2.2.2.2.2.2.2.*.T V V T &.<.",
"0.4.G i p p p G 3.0.0.8.8.7.8.8.9.0.0.0.8.0.0.0.0.3.G i i G 4.0."
};
