/* XPM */
static char *result[] = {
/* columns rows colors chars-per-pixel */
"32 32 123 2 ",
"   c #071316",
".  c #081417",
"X  c #0D1618",
"o  c #131A1B",
"O  c #181D1B",
"+  c #3C221E",
"@  c #161F20",
"#  c #191F22",
"$  c #1C2124",
"%  c #1D2927",
"&  c #1E2C2A",
"*  c #212525",
"=  c #222C2A",
"-  c #2A2C2D",
";  c #352C22",
":  c #3C2B20",
">  c #3F3B2F",
",  c #312F39",
"<  c #2D3232",
"1  c #2C3A35",
"2  c #333335",
"3  c #303834",
"4  c #3F3B30",
"5  c #37353D",
"6  c #3B363C",
"7  c #3D3A3D",
"8  c #412720",
"9  c #422F23",
"0  c #402A28",
"q  c #463626",
"w  c #46372F",
"e  c #443F36",
"r  c #493830",
"t  c #40353C",
"y  c #403D3D",
"u  c #454035",
"i  c #4C4436",
"p  c #464639",
"a  c #5D4032",
"s  c #71402B",
"d  c #604334",
"f  c #654F38",
"g  c #665139",
"h  c #3B3644",
"j  c #3E3944",
"k  c #413D43",
"l  c #633F41",
"z  c #454245",
"x  c #494346",
"c  c #454846",
"v  c #484A47",
"b  c #444048",
"n  c #4A4449",
"m  c #4E4A4B",
"M  c #5D4343",
"N  c #524B4C",
"B  c #475246",
"V  c #4C574E",
"C  c #495A4E",
"Z  c #53504E",
"A  c #4E5E52",
"S  c #525250",
"D  c #555C53",
"F  c #585F51",
"G  c #664744",
"H  c #6C4C46",
"J  c #614E48",
"K  c #6F5E52",
"L  c #4F6053",
"P  c #546056",
"I  c #596354",
"U  c #576558",
"Y  c #58675B",
"T  c #5C6A5D",
"R  c #5D705F",
"E  c #79664C",
"W  c #7A684D",
"Q  c #6F6554",
"!  c #7C6755",
"~  c #756D58",
"^  c #76745A",
"/  c #5F7160",
"(  c #617362",
")  c #8B3E2E",
"_  c #8D3F33",
"`  c #A63D2D",
"'  c #934A3A",
"]  c #8F5C36",
"[  c #AA4B31",
"{  c #BE5434",
"}  c #BA543E",
"|  c #BC593F",
" . c #9C683F",
".. c #B5663C",
"X. c #E55E3A",
"o. c #E7613D",
"O. c #9C4D40",
"+. c #9A6643",
"@. c #867D5E",
"#. c #A4754A",
"$. c #BD7743",
"%. c #AB7850",
"&. c #C36E46",
"*. c #CF7A44",
"=. c #C57249",
"-. c #9C815E",
";. c #A5825D",
":. c #A88760",
">. c #D48F56",
",. c #D79056",
"<. c #E88047",
"1. c #F6864A",
"2. c #F8874B",
"3. c #C49F70",
"4. c #C6A071",
"5. c #CBA473",
"6. c #D5AC79",
"7. c #D8AE7A",
"8. c #F3C287",
"9. c #F4C388",
"0. c #FFCC8E",
"q. c #FFCF90",
"w. c #FFD291",
/* pixels */
"0.0.0.0.0.9.0.0.0.0.0.0.0.0.0.0.0.0.0.0.0.0.0.0.w.w.w.w.w.q.0.0.",
"0.0.0.0.0.0.0.0.0.0.0.q.q.0.0.q.0.q.0.0.0.0.0.9.6.3.4.4.4.7.8.0.",
"0.0.0.0.0.0.0.0.0.q.q.0.q.q.q.q.q.q.q.q.0.w.w.7.W i i i i W 7.0.",
"0.0.0.0.0.0.0.8.6.3.3.3.3.3.3.3.3.3.3.3.3.5.5.-.u @ @ O X i 4.w.",
"0.0.0.0.0.0.0.7.E u i i i i i i i i i i i i i u y j 7 < o i 5.w.",
"0.0.0.0.0.8.7.-.p % % = % = = = = = = = = % % < z N N 7 % 4 -.5.",
"0.0.0.q.q.7.E p B C C C C C C C C C C C C C C V m N N k $ * 4 i ",
"0.0.0.9.7.-.p 1 P ( ( ( ( ( ( ( ( ( ( ( ( ( ( T Z v p 2 - $ o o ",
"0.0.q.7.E p v L T ( / ( ( / ( ( / / / / ( ( ( T Z y - - 6 2 * X ",
"0.8.7.-.e < A ( / / ( R / R / / / / / / / / ( T D c - < p k * o ",
"0.6.E e 6 v U ( ( ( R ( / / / / / / / / / Q / R T D v k m y * o ",
"w.3.i # 7 S T ( R R ( R / / / / / / / / / / R ( ( U v y y 2 $ X ",
"w.4.i $ 7 S T ( ( ( / / / / / / / / / / R / ( ( ( P 3 * * * o X ",
"w.4.i $ 7 Z I T R R / ( ( / / / / / / / ( / / R T V < O o * w i ",
"w.4.i $ 7 N N D T R ( / ( ( R / / / / / ( ( / T D m z 2 @ e -.5.",
"q.4.i * 7 m n N Q Q F C C I Q ! ~ Q U L C F Q Q N n m y $ i 5.w.",
"q.5.i $ j n j l O.' w & & w O.| } ' r & = r ' ' G k n j $ i 5.w.",
"w.5.i $ 7 n j G } { s ; @ : [ o.X.[ 8 o : s { } l j c 7 $ i 5.w.",
"w.3.i $ 7 c j G &.<.*.] ; 9 $.o.1...q ; ] *.*.=.G j n j $ i 4.w.",
"w.4.i $ j n k J %.>.>.#.i i #.>.>.#.i i %.,.,.%.J k n j $ i 4.w.",
"w.4.i @ 7 m n Z ~ @.@.^ K Y ^ @.@.~ Y U ^ @.@.~ Z x N 7 $ i 3.w.",
"0.7.E u y k n N U Y Y Y T T Y Y Y Y Y Q U Y Y D N v k 7 u E 6.0.",
"0.9.7.-.i - z N Z Z S S D Z S S V S S S S S S S N z = p -.7.9.0.",
"0.w.w.5.p o < k k n n n k n k k k n n n n n b z y 2 $ i 5.w.q.0.",
"0.q.w.5.p X $ = h j k k h k k k k h k k k k k 5 - o X i 5.w.w.0.",
"0.9.7.;.a + : : h j h h h k k k k k k k h h h 6 0 + + a ;.7.9.q.",
"q.6.E a _ ` ` _ G k h h k n n n k n n k h h b G ' ` ` ) a E 7.q.",
"w.3.u + [ o.o.| H k h h n n k y k k n k k j k H } X.o.[ + u 3.w.",
"w.3.u : ..2.2.=.l h h h k 6 - $ * - h k h h h J =.2.2...; u :.w.",
"q.6.W f +.$.$.+.l h h h h , $ o @ # , h h h h M +.$.$. .f E 7.w.",
"0.8.7.:.f q q w k h h h h , $ o o $ , h h h h 6 w q q g :.7.9.w.",
"0.q.w.5.i   . # , h h h k , $ o o $ , h h h h , $ . . p 5.w.w.w."
};
