/* XPM */
static char *result[] = {
/* columns rows colors chars-per-pixel */
"32 32 137 2 ",
"   c #051213",
".  c #0A1615",
"X  c #071618",
"o  c #0A1718",
"O  c #0E1A19",
"+  c #151213",
"@  c #181516",
"#  c #151818",
"$  c #181B1A",
"%  c #2E181B",
"&  c #30171B",
"*  c #3B161B",
"=  c #3D191E",
"-  c #341D21",
";  c #3E1C22",
":  c #162525",
">  c #1B2425",
",  c #1A2827",
"<  c #3D2123",
"1  c #362D22",
"2  c #3F2A21",
"3  c #343F3E",
"4  c #3A3E3C",
"5  c #412C1F",
"6  c #411D23",
"7  c #442127",
"8  c #482327",
"9  c #432E22",
"0  c #433425",
"q  c #652227",
"w  c #66232C",
"e  c #69252C",
"r  c #6B312D",
"t  c #6D3B29",
"y  c #6B2830",
"u  c #3E413D",
"i  c #40423E",
"p  c #6F462C",
"a  c #724E32",
"s  c #354443",
"d  c #3A4545",
"f  c #444E4D",
"g  c #494F4F",
"h  c #5D4549",
"j  c #46504F",
"k  c #4A5353",
"l  c #624A4D",
"z  c #757E7E",
"x  c #797E7E",
"c  c #822530",
"v  c #862934",
"b  c #8F323F",
"n  c #AC2D3D",
"m  c #B02F3E",
"M  c #AE313F",
"N  c #AB393A",
"B  c #BC3A3D",
"V  c #8F5D38",
"C  c #AE4F34",
"Z  c #AF5830",
"A  c #BE5537",
"S  c #B15A32",
"D  c #BE5338",
"F  c #B26136",
"G  c #B66E3E",
"H  c #D9543E",
"J  c #DA703C",
"K  c #E6613F",
"L  c #E9633F",
"P  c #E56C3A",
"I  c #E96D3C",
"U  c #E7743C",
"Y  c #E9753D",
"T  c #E7793F",
"R  c #EA793F",
"E  c #923642",
"W  c #953944",
"Q  c #983843",
"!  c #AE2F40",
"~  c #AD3040",
"^  c #B23241",
"/  c #BB3242",
"(  c #BD3C40",
")  c #C23445",
"_  c #D53649",
"`  c #DA374A",
"'  c #DB384B",
"]  c #E1374D",
"[  c #E43A4D",
"{  c #E93A4E",
"}  c #B14240",
"|  c #B56440",
" . c #B77340",
".. c #B87442",
"X. c #D54046",
"o. c #D94B43",
"O. c #E24647",
"+. c #E24F45",
"@. c #E54549",
"#. c #E9474A",
"$. c #E5494B",
"%. c #EA4B4E",
"&. c #E25343",
"*. c #E95247",
"=. c #E45842",
"-. c #E85843",
";. c #E4564A",
":. c #EB5B4B",
">. c #C57441",
",. c #C77C46",
"<. c #CA7D46",
"1. c #E56742",
"2. c #EA6441",
"3. c #E56A41",
"4. c #EA6D42",
"5. c #EC7043",
"6. c #E97D43",
"7. c #EB754B",
"8. c #EC7F4E",
"9. c #F16E50",
"0. c #79807F",
"q. c #EC8147",
"w. c #EC854B",
"e. c #E48C4D",
"r. c #ED8B4B",
"t. c #F2834F",
"y. c #F18C4B",
"u. c #EF904E",
"i. c #F49451",
"p. c #F89651",
"a. c #9D9285",
"s. c #939B9A",
"d. c #A29D9E",
"f. c #A49FA0",
"g. c #98A1A1",
"h. c #A8A3A3",
"j. c #FFCB8D",
/* pixels */
"j.j.j.j.j.j.j.j.j.j.j.j.j.j.j.j.j.j.j.j.j.j.j.j.j.j.j.j.j.j.j.j.",
"j.j.j.j.j.j.j.j.j.j.j.j.j.j.j.j.j.j.j.j.j.j.j.j.j.j.j.j.j.j.j.j.",
"j.j.j.j.j.j.j.j.x f k k g x j.j.j.j.j.j.x f f z j.j.j.j.j.j.j.j.",
"j.j.j.j.j.j.j.d.l = = & + g j.j.j.j.j.d.h * * l d.j.j.j.j.j.j.j.",
"j.j.j.j.j.j.z h E n m c % k j.j.x f f h W n m E l z j.j.j.j.j.j.",
"j.j.j.j.j.d.h q / { { m 7 d g.h.l * * w / { { n * f j.j.j.j.j.j.",
"j.j.j.j.z l b m _ { { ~ < : s h E n n B ` ] { n * f j.j.j.j.j.j.",
"j.j.j.s.3 = m { [ [ [ / r 9 ; w / { { [ @.@.{ n 6 g j.j.j.j.j.j.",
"j.j.x 3 : ; ~ { [ ' [ _ A C N / _ [ ] @.=.=.$.n 6 g j.j.j.j.j.j.",
"j.d.l % # 7 ~ [ [ [ O.&.L L O.[ ] ' @.o.K K @.n 6 k j.j.j.j.j.j.",
"k l Q v - < ~ [ ] o.&.K P K $.] ] @.=.P P K @.n 6 k j.j.x f k k ",
". 6 m ) y y ^ [ @.&.3.T 5.1.$.[ [ +.3.T T 1.O.n = d g.h.l & @ . ",
". 7 m ' ( / _ @.&.4.6.r.r.7.$.X.&.3.q.r.r.7.%.M < , s l Q v * o ",
". 7 M { { [ [ O.K 6.y.i.i.8.;.+.P q.r.u.i.t.:.( y ; ; e ) B 8 O ",
". 6 m { [ [ ' @.K 6.y.i.i.w.3.3.6.e.u.i.i.r.4.&.( ! ! / ` ~ 8 o ",
"k l W / _ [ ] X.D S G <.e.r.6.6.r.i.i.e.,.G F D o.$.@.@.{ ~ 8 O ",
"j.j.l w / { [ / r 2 0 a <.p.y.r.u.i.p.<.a 0 9 t D 2.L -.@.M 7 O ",
"j.j.k ; n [ { ! 7 X X 1 V <.e.u.u.e.e.V 1 X X 9 S U I K #.M 7 O ",
"j.j.k ; n [ { ! 7 X O : 1 a ,.p.i.,.p 1 $ o o 9 S I I K #.^ 7 O ",
"j.j.k ; ! @.%.} 8 , 0 d > 0  .p.p...1 : i i > 9 S I I H ) v - . ",
"j.j.k - n %.9.| 0 u a.a.4 9  .p.p. .0 4 a.a.u 5 S L *.( r < # o ",
"j.j.l e B :.t. .0 4 a.a.4 0  .p.p. .0 4 a.a.4 5 Z 2.#.~ 7 , d k ",
"k l W ( H 4.y. .0 : 4 4 : 0  .p.p...0 > 4 3 > 9 S K #.n 6 d j.j.",
"  ; ^ %.K 6.y.,.a 0 0 0 0 a ,.p.i.,.a 0 0 0 0 p H L @.n 6 k j.j.",
"  = n #.2.Y r.e.,. . .....,.e.i.u.e.<.....G ..>.J J @.n 6 k j.j.",
"k l E B H 4.6.r.y.y.y.y.y.y.r.r.r.r.y.y.u.y.u.q.U K #.n = k j.j.",
"j.j.h q B *.4.6.U 6.R R R 6.U Y Y Y R R R R 6.U U K @.n * j j.j.",
"j.j.z h b B H K K 2.K K K K K =.=.2.K K K K K K K H B b h x j.j.",
"j.j.j.d.h q B #.@.@.#.O.@.O.#.@.@.#.O.@.O.#.#.#.#.B q h d.j.j.j.",
"j.j.j.j.z h E ! ~ n M ~ ~ ~ ~ ~ M M ~ M ~ ~ M ~ M E h 0.j.j.j.j.",
"j.j.j.j.j.f.l 6 7 7 8 7 7 7 7 7 7 7 7 7 7 7 7 6 ; l f.j.j.j.j.j.",
"j.j.j.j.j.j.k . o O O O O O O O O O O O O # . o o k j.j.j.j.j.j."
};
