/* XPM */
static char *result[] = {
/* columns rows colors chars-per-pixel */
"32 32 256 2 ",
"   c #2B2523",
".  c #2C2523",
"X  c #2E2522",
"o  c #2E2623",
"O  c #2F2623",
"+  c #2E2723",
"@  c #2F2824",
"#  c #2D2B24",
"$  c #302623",
"%  c #302C25",
"&  c #312D26",
"*  c #322F26",
"=  c #332F26",
"-  c #322F27",
";  c #342C24",
":  c #352E25",
">  c #372E25",
",  c #372F25",
"<  c #3B2920",
"1  c #3C2C22",
"2  c #3F2D23",
"3  c #402B21",
"4  c #412C21",
"5  c #432C21",
"6  c #442C21",
"7  c #442D22",
"8  c #4E3227",
"9  c #6C3C28",
"0  c #663E31",
"q  c #734336",
"w  c #744336",
"e  c #734436",
"r  c #734437",
"t  c #744436",
"y  c #754436",
"u  c #744437",
"i  c #754537",
"p  c #724E37",
"a  c #764A39",
"s  c #7B583F",
"d  c #7B5B3F",
"f  c #665741",
"g  c #7C5C40",
"h  c #7D5E41",
"j  c #7E5E41",
"k  c #7E5F41",
"l  c #924B2F",
"z  c #914E3E",
"x  c #914F3E",
"c  c #895B3D",
"v  c #895C3E",
"b  c #8A5D3E",
"n  c #92503F",
"m  c #A35735",
"M  c #A35836",
"N  c #A45836",
"B  c #A9583E",
"V  c #A9583F",
"C  c #A9593F",
"Z  c #B25531",
"A  c #B25532",
"S  c #B05632",
"D  c #B15632",
"F  c #B25632",
"G  c #B35632",
"H  c #BF5B34",
"J  c #C05B34",
"K  c #C35C34",
"L  c #C35D35",
"P  c #C16039",
"I  c #C5663F",
"U  c #D2643B",
"Y  c #D3643B",
"T  c #D2643C",
"R  c #DC6538",
"E  c #DC6638",
"W  c #D46A3E",
"Q  c #D56A3E",
"!  c #D46B3F",
"~  c #D76D3F",
"^  c #E66838",
"/  c #E76939",
"(  c #E96938",
")  c #E96A39",
"_  c #E86A3A",
"`  c #E96A3A",
"'  c #E86B3A",
"]  c #E96B3A",
"[  c #EA6A3A",
"{  c #EA6B3A",
"}  c #EB6B3A",
"|  c #EC6B39",
" . c #EC6B3A",
".. c #ED6B3A",
"X. c #E86C3B",
"o. c #EB6C3A",
"O. c #EC6C3A",
"+. c #ED6C3A",
"@. c #EC6C3B",
"#. c #ED6C3B",
"$. c #EC6D3B",
"%. c #EE6C3A",
"&. c #E9703D",
"*. c #EB703D",
"=. c #EA713D",
"-. c #E9723E",
";. c #EA723E",
":. c #EB723E",
">. c #EC703D",
",. c #EC723E",
"<. c #ED733E",
"1. c #935140",
"2. c #935240",
"3. c #945240",
"4. c #955240",
"5. c #9A5642",
"6. c #9D5742",
"7. c #965841",
"8. c #975942",
"9. c #9A5943",
"0. c #995A43",
"q. c #995B43",
"w. c #9A5A43",
"e. c #9B5A43",
"r. c #9B5B43",
"t. c #9D5A42",
"y. c #9D5B44",
"u. c #9C5D44",
"i. c #A55940",
"p. c #A75C40",
"a. c #A85B40",
"s. c #AA5A40",
"d. c #AA5D40",
"f. c #AB5E42",
"g. c #AB5F42",
"h. c #9F6447",
"j. c #9F6748",
"k. c #9F6849",
"l. c #9D6A49",
"z. c #9E6B49",
"x. c #9E7A55",
"c. c #AB6042",
"v. c #AC6043",
"b. c #AC6143",
"n. c #AB6B47",
"m. c #A26949",
"M. c #A06C4A",
"N. c #A06D4B",
"B. c #A06E4B",
"V. c #A26F4C",
"C. c #BB6843",
"Z. c #BC6A44",
"A. c #A3714D",
"S. c #A4714D",
"D. c #A1744D",
"F. c #A2754E",
"G. c #A3754E",
"H. c #A3764F",
"J. c #A5754E",
"K. c #A4764E",
"L. c #A5764E",
"P. c #A4774F",
"I. c #A5774F",
"U. c #A7784F",
"Y. c #BF7247",
"T. c #B3744A",
"R. c #B3744B",
"E. c #B4754B",
"W. c #B5754B",
"Q. c #B6754B",
"!. c #B6704E",
"~. c #B7714F",
"^. c #B8714F",
"/. c #AC6E52",
"(. c #AC6E53",
"). c #AE6F53",
"_. c #AE7053",
"`. c #A77850",
"'. c #B37756",
"]. c #B97350",
"[. c #BA7350",
"{. c #B97451",
"}. c #D96E40",
"|. c #D96F40",
" X c #DA6F40",
".X c #CF784A",
"XX c #CF794B",
"oX c #DB7241",
"OX c #DC7241",
"+X c #DA7745",
"@X c #D97746",
"#X c #DF7747",
"$X c #D97846",
"%X c #D17B4C",
"&X c #DB7C48",
"*X c #DC7D48",
"=X c #DC7E49",
"-X c #DD7F49",
";X c #ED7942",
":X c #ED7A42",
">X c #E97E45",
",X c #EF7D44",
"<X c #EF7F44",
"1X c #B8845B",
"2X c #BB8C5E",
"3X c #BC8C5F",
"4X c #BD8D5F",
"5X c #E18149",
"6X c #E28149",
"7X c #E3834A",
"8X c #EE834F",
"9X c #EF8A4B",
"0X c #EF8A4C",
"qX c #F08448",
"wX c #F28548",
"eX c #F28749",
"rX c #F38749",
"tX c #F48648",
"yX c #F48849",
"uX c #F48C4B",
"iX c #F68D4C",
"pX c #F58E4D",
"aX c #F58F4D",
"sX c #F68E4D",
"dX c #F68F4D",
"fX c #F78F4D",
"gX c #C18662",
"hX c #C28762",
"jX c #CE9464",
"kX c #D6996C",
"lX c #D79A6D",
"zX c #D79B6D",
"xX c #CFA876",
"cX c #E5AE7B",
"vX c #E6AF7C",
"bX c #E1B27C",
"nX c #E7B07C",
"mX c #E8B17C",
"MX c #E9B57D",
"NX c #E9B77E",
"BX c #EAB77E",
"VX c #ECB57F",
"CX c #FFB87C",
"ZX c #EDB780",
"AX c #EDB781",
"SX c #FAC589",
"DX c #FBC68A",
"FX c #FFCB8D",
"GX c #FFCC8E",
"HX c #FFCD8E",
"JX c #FFCE8F",
"KX c #FFCF90",
"LX c #FFD091",
"PX c #FFD191",
"IX c #FFD291",
"UX c #FFD292",
/* pixels */
"FXFXFXGXJXPXIXnX).x n 2.2.1.1.1.1.1.1.2.2.n x ).nXIXPXJXGXFXFXFX",
"FXGXHXSXVXcXvXzX[.d.C s.f.b.b.v.v.b.b.f.s.C d.[.zXvXcXVXSXHXGXFX",
"FXHXKXZXhX/.(.{.%X+XQ W @X=X=X=X=X=X=X@XW Q +X%X{.(./.hXZXKXHXFX",
"JXDXAXkX^.a.p.Z.7XtX<.,.wXdXsXpXpXsXdXwX,.<.tX7XZ.p.a.^.kXAXDXJX",
"PXAXgX!..X*X&X5X0XwX,.:.wXpXpXpXpXpXpXwX:.,.wX0X5X&X*X.X!.gXAXPX",
"mXlX~.C.6XfXfXuXeX>XoXOX>XqXqXqXqXqXqX>XOXoX>XeXuXfXfX6XC.~.lXmX",
"_.].XX6X9XpXaXrX;XoXY.Y.oX;.;.-.-.;.;.oXY.Y.oX;XrXaXpX9X6XXX]._.",
"z g.-XiXrXqXqX,X>.~ T.R.~ [ [ ` ` [ [ ~ R.T.~ >.,XqXqXrXiX-Xg.z ",
"x c.-XyX:X-.-.*.$.}.W.E.}. . .} }  . .}.E.W.}.$.*.-.-.:XyX-Xc.x ",
"1.g.$X<X&./ ` R J M v b N G F D D F G N b v M J R ` / &.<X$Xg.1.",
"2.s.! =.X.] #.K 9 1 : , 2 7 7 7 7 7 7 2 , : 1 9 K #.] X.=.! s.2.",
"3.B U _ ' E L l 8 . X $ O + o o o o + O $ X . 8 l L E ' _ U B 3.",
"3.V U { o.H 9 8 0 i y t t r e q q e r t t y i 0 8 9 H o.{ U V 3.",
"3.V T o.@.S 3   u 6.y.r.5.5.e.u.u.e.5.5.r.y.6.u   3 S @.o.T V 3.",
"3.V T o.@.D 4 . w y.m.k.w.9.j.V.V.j.9.w.k.m.y.w . 4 D @.o.T V 3.",
"3.V T o.@.D 7 @ a h.A.B.q.q.N.P.P.N.q.q.B.A.h.a @ 7 D @.o.T V 3.",
"3.V T o.@.D 5 & s S.J.N.q.q.N.P.P.N.q.q.N.J.S.s & 5 D @.o.T V 3.",
"3.V T o.@.D 5 - k `.I.M.0.0.M.H.H.M.0.0.M.I.`.k - 5 D @.o.T V 3.",
"3.V T o.@.D 5 - k `.I.M.0.0.M.H.H.M.0.0.M.I.`.k - 5 D @.o.T V 3.",
"3.V T o.@.D 5 - h U.I.M.0.0.M.H.H.M.0.0.M.I.U.h - 5 D @.o.T V 3.",
"3.V T o.@.D 5 - h U.I.M.0.0.M.H.H.M.0.0.M.I.U.h - 5 D @.o.T V 3.",
"3.V T o.@.D 5 - h U.I.M.0.0.M.H.H.M.0.0.M.I.U.h - 5 D @.o.T V 3.",
"3.V T o.@.D 5 - h U.I.M.0.0.M.H.H.M.0.0.M.I.U.h - 5 D @.o.T V 3.",
"2.V Y O.+.A 6 - h U.I.M.0.0.M.H.H.M.0.0.M.I.U.h - 6 A +.O.Y V 2.",
"2.B Y ..%.Z 6 - h U.I.M.0.0.M.H.H.M.0.0.M.I.U.h - 6 Z %...Y B 2.",
"3.i.I |. XN 2 * j U.I.M.0.0.M.H.H.M.0.0.M.I.U.j * 2 N  X|.I i.3.",
"4.t.n.W.Q.v > = j U.I.M.0.0.M.H.H.M.0.0.M.I.U.j = > v Q.W.n.t.4.",
"4.t.n.W.Q.c ; % g L.K.z.8.8.z.F.F.z.8.8.z.K.L.g % ; c Q.W.n.t.4.",
"3.i.I |. Xm < # d K.G.l.7.7.l.D.D.l.7.7.l.G.K.d # < m  X|.I i.3.",
"2.B Y | | P p f x.4X3X1X'.'.1X2X2X1X'.'.1X3X4Xx.f p P | | Y B 2.",
"2.V Y ) ( #XjXxXbXBXBXMXnXnXMXNXNXMXnXnXMXBXBXbXxXjX#X( ) Y V 2.",
"3.V T / ^ 8XCXUXLXJXJXJXJXJXJXJXJXJXJXJXJXJXJXLXUXCX8X^ / T V 3."
};
