/* XPM */
static char *result[] = {
/* columns rows colors chars-per-pixel */
"32 32 218 2 ",
"   c #FFCB8D",
".  c #FFCC8E",
"X  c #FFCE8F",
"o  c #FFD191",
"O  c #FFD291",
"+  c #E7B07C",
"@  c #AE6F53",
"#  c #914F3E",
"$  c #92503F",
"%  c #935240",
"&  c #935140",
"*  c #FFCD8E",
"=  c #FAC589",
"-  c #ECB57F",
";  c #E5AE7B",
":  c #E6AF7C",
">  c #D79B6D",
",  c #BA7350",
"<  c #AA5D40",
"1  c #A9593F",
"2  c #AA5A40",
"3  c #AB5E42",
"4  c #AC6143",
"5  c #AC6043",
"6  c #FFCF90",
"7  c #EDB780",
"8  c #C28762",
"9  c #AC6E52",
"0  c #AC6E53",
"q  c #B97451",
"w  c #D17B4C",
"e  c #DA7745",
"r  c #D56A3E",
"t  c #D46A3E",
"y  c #D97746",
"u  c #DC7E49",
"i  c #FBC68A",
"p  c #EDB781",
"a  c #D6996C",
"s  c #B8714F",
"d  c #A85B40",
"f  c #A75C40",
"g  c #BC6A44",
"h  c #E3834A",
"j  c #F48648",
"k  c #ED733E",
"l  c #EC723E",
"z  c #F28548",
"x  c #F68F4D",
"c  c #F68E4D",
"v  c #F58E4D",
"b  c #C18662",
"n  c #B6704E",
"m  c #CF784A",
"M  c #DC7D48",
"N  c #DB7C48",
"B  c #E18149",
"V  c #EF8A4C",
"C  c #EB723E",
"Z  c #E8B17C",
"A  c #D79A6D",
"S  c #B7714F",
"D  c #BB6843",
"F  c #E28149",
"G  c #F78F4D",
"H  c #F48C4B",
"J  c #F28749",
"K  c #E97E45",
"L  c #DB7241",
"P  c #DC7241",
"I  c #F08448",
"U  c #AE7053",
"Y  c #B97350",
"T  c #CF794B",
"R  c #EF8A4B",
"E  c #F58F4D",
"W  c #F38749",
"Q  c #ED7942",
"!  c #BF7247",
"~  c #EA723E",
"^  c #E9723E",
"/  c #914E3E",
"(  c #AB5F42",
")  c #DD7F49",
"_  c #F68D4C",
"`  c #EF7D44",
"'  c #EC703D",
"]  c #D76D3F",
"[  c #B3744A",
"{  c #B3744B",
"}  c #EA6A3A",
"|  c #E96A3A",
" . c #AB6042",
".. c #F48849",
"X. c #ED7A42",
"o. c #EB703D",
"O. c #EC6D3B",
"+. c #D96E40",
"@. c #B5754B",
"#. c #B4754B",
"$. c #EC6B3A",
"%. c #EB6B3A",
"&. c #D97846",
"*. c #EF7F44",
"=. c #E9703D",
"-. c #E76939",
";. c #DD6638",
":. c #C15B34",
">. c #A55936",
",. c #8B5D3E",
"<. c #8C5D3E",
"1. c #A65936",
"2. c #B55732",
"3. c #B45732",
"4. c #B35733",
"5. c #D46B3F",
"6. c #EA713D",
"7. c #E86C3B",
"8. c #E96B3A",
"9. c #ED6C3B",
"0. c #C35D35",
"q. c #6F3D28",
"w. c #3F2D23",
"e. c #382F26",
"r. c #3A3026",
"t. c #432F24",
"y. c #472E22",
"u. c #945240",
"i. c #A9583E",
"p. c #D2643B",
"a. c #E86A3A",
"s. c #E86B3A",
"d. c #DC6639",
"f. c #8A482C",
"g. c #362820",
"h. c #0C181A",
"j. c #0E181A",
"k. c #10191A",
"l. c #0F191A",
"z. c #A9583F",
"x. c #EA6B3A",
"c. c #EB6C3A",
"v. c #C05C34",
"b. c #6E3D28",
"n. c #1C1E1C",
"m. c #11191A",
"M. c #121A1A",
"N. c #111A1A",
"B. c #111A1B",
"V. c #D2643C",
"C. c #EC6C3B",
"Z. c #B25632",
"A. c #432D22",
"S. c #0B181A",
"D. c #141B1B",
"F. c #B35732",
"G. c #442D22",
"H. c #0D181A",
"J. c #101A1A",
"K. c #D3643B",
"L. c #EC6C3A",
"P. c #ED6C3A",
"I. c #ED6B3A",
"U. c #EE6C3A",
"Y. c #0E191A",
"T. c #A55940",
"R. c #C5663F",
"E. c #D96F40",
"W. c #DA6F40",
"Q. c #402E23",
"!. c #161C1C",
"~. c #282421",
"^. c #342924",
"/. c #332924",
"(. c #955240",
"). c #9D5A42",
"_. c #AB6B47",
"`. c #B6754B",
"'. c #895C3E",
"]. c #352E25",
"[. c #262220",
"{. c #5C3A2F",
"}. c #794738",
"|. c #784637",
" X c #774537",
".X c #B4744A",
"XX c #916040",
"oX c #4E382B",
"OX c #473029",
"+X c #7D4738",
"@X c #9A5440",
"#X c #995340",
"$X c #975340",
"%X c #D86E3F",
"&X c #BD623D",
"*X c #8B4D37",
"=X c #7A4537",
"-X c #8C4D3C",
";X c #96513F",
":X c #95513F",
">X c #EA6A39",
",X c #DB6C40",
"<X c #C0704E",
"1X c #B27255",
"2X c #B07254",
"3X c #B07153",
"4X c #E96939",
"5X c #E86938",
"6X c #E77B4A",
"7X c #E89F6C",
"8X c #E8B17D",
"9X c #E6AF7B",
"0X c #E76838",
"qX c #ED824F",
"wX c #FBB67B",
"eX c #FFD091",
"rX c #FFCF8F",
"tX c white",
/* pixels */
"      . X o O + @ # $ % % & & & & & & % % $ # @ + O o X .       ",
"  . * = - ; : > , < 1 2 3 4 4 5 5 4 4 3 2 1 < , > : ; - = * .   ",
"  * 6 7 8 9 0 q w e r t y u u u u u u y t r e w q 0 9 8 7 6 *   ",
"X i p a s d f g h j k l z x c v v c x z l k j h g f d s a p i X ",
"o p b n m M N B V z l C z v v v v v v z C l z V B N M m n b p o ",
"Z A S D F G G H J K L P K I I I I I I K P L K J H G G F D S A Z ",
"U Y T F R v E W Q L ! ! L ~ ~ ^ ^ ~ ~ L ! ! L Q W E v R F T Y U ",
"/ ( ) _ W I I ` ' ] [ { ] } } | | } } ] { [ ] ' ` I I W _ ) ( / ",
"#  .) ..X.^ ^ o.O.+.@.#.+.$.$.%.%.$.$.+.#.@.+.O.o.^ ^ X...)  .# ",
"& ( &.*.=.-.| ;.:.>.,.<.1.2.3.4.4.3.2.1.<.,.>.:.;.| -.=.*.&.( & ",
"% 2 5.6.7.8.9.0.q.w.e.r.t.y.y.y.y.y.y.t.r.e.w.q.0.9.8.7.6.5.2 % ",
"u.i.p.a.s.d.0.f.g.h.j.k.l.l.l.l.l.l.l.l.k.j.h.g.f.0.d.s.a.p.i.u.",
"u.z.p.x.c.v.b.g.n.k.m.M.N.B.B.B.B.B.B.N.M.m.k.n.g.b.v.c.x.p.z.u.",
"u.z.V.c.C.Z.A.S.k.D.D.D.D.D.D.D.D.D.D.D.D.D.D.k.S.A.Z.C.c.V.z.u.",
"u.z.V.c.C.F.G.H.J.D.D.D.D.D.D.D.D.D.D.D.D.D.D.J.H.G.F.C.c.V.z.u.",
"u.z.V.c.C.4.y.l.B.D.D.D.D.D.D.D.D.D.D.D.D.D.D.B.l.y.4.C.c.V.z.u.",
"u.z.V.c.C.4.y.l.B.D.D.D.D.D.D.D.D.D.D.D.D.D.D.B.l.y.4.C.c.V.z.u.",
"u.z.V.c.C.4.y.l.B.D.D.D.D.D.D.D.D.D.D.D.D.D.D.B.l.y.4.C.c.V.z.u.",
"u.z.V.c.C.4.y.l.B.D.D.D.D.D.D.D.D.D.D.D.D.D.D.B.l.y.4.C.c.V.z.u.",
"u.z.V.c.C.4.y.l.B.D.D.D.D.D.D.D.D.D.D.D.D.D.D.B.l.y.4.C.c.V.z.u.",
"u.z.V.c.C.4.y.l.B.D.D.D.D.D.D.D.D.D.D.D.D.D.D.B.l.y.4.C.c.V.z.u.",
"u.z.V.c.C.4.y.l.B.D.D.D.D.D.D.D.D.D.D.D.D.D.D.B.l.y.4.C.c.V.z.u.",
"u.z.V.c.C.4.y.l.B.D.D.D.D.D.D.D.D.D.D.D.D.D.D.B.l.y.4.C.c.V.z.u.",
"% z.K.L.P.3.y.l.l.M.M.M.M.M.M.M.M.M.M.M.M.M.M.l.l.y.3.P.L.K.z.% ",
"% i.K.I.U.2.y.Y.l.N.N.N.N.N.N.N.N.N.N.N.N.N.N.l.Y.y.2.U.I.K.i.% ",
"u.T.R.E.W.>.Q.!.~.^.^././././././././././.^.^.~.!.Q.>.W.E.R.T.u.",
"(.)._.@.`.'.].[.{.}.|. X X X X X X X X X X|.}.{.[.].'.`.@._.).(.",
"(.)._..X@.XXoXOX+X@X#X$X$X$X$X$X$X$X$X$X$X#X@X+XOXoXXX@..X_.).(.",
"u.T.R.%X%X&X*X=X-X;X;X:X:X:X:X:X:X:X:X:X:X;X;X-X=X*X&X%X%XR.T.u.",
"% i.K.>X>X,X<X1X2X3X3X3X3X3X3X3X3X3X3X3X3X3X3X2X1X<X,X>X>XK.i.% ",
"% z.K.4X5X6X7X8X+ 9X9X9X9X9X9X9X9X9X9X9X9X9X9X+ 8X7X6X5X4XK.z.% ",
"u.z.V.-.0XqXwXo eXrXrXrXrXrXrXrXrXrXrXrXrXrXrXeXo wXqX0X-.V.z.u."
};
