/* XPM */
static char *result[] = {
/* columns rows colors chars-per-pixel */
"32 32 167 2 ",
"   c #071216",
".  c #0C1517",
"X  c #0C1618",
"o  c #0D1819",
"O  c #121919",
"+  c #3B1B24",
"@  c #3F2E21",
"#  c #313028",
"$  c #3F3F35",
"%  c #472728",
"&  c #482728",
"*  c #442F28",
"=  c #4B2929",
"-  c #432F27",
";  c #5A2A2C",
":  c #473425",
">  c #493C2A",
",  c #453628",
"<  c #5E392F",
"1  c #423E32",
"2  c #68262F",
"3  c #66242F",
"4  c #643A32",
"5  c #3F4036",
"6  c #424136",
"7  c #494335",
"8  c #464539",
"9  c #5F4931",
"0  c #664F38",
"q  c #794536",
"w  c #7B4738",
"e  c #7B4839",
"r  c #6E533C",
"t  c #70583E",
"y  c #775B37",
"u  c #5D5442",
"i  c #605744",
"p  c #635A46",
"a  c #6B634F",
"s  c #76644A",
"d  c #716852",
"f  c #8B2E38",
"g  c #92323A",
"h  c #8C493C",
"j  c #914E3E",
"k  c #93503F",
"l  c #9E643C",
"z  c #BB6F3E",
"x  c #E56636",
"c  c #E86E3C",
"v  c #EA723E",
"b  c #AF2F40",
"n  c #BC3343",
"m  c #CE3E49",
"M  c #C93B47",
"N  c #D7374A",
"B  c #D23D4A",
"V  c #DA394B",
"C  c #E4394D",
"Z  c #E93A4E",
"A  c #955A42",
"S  c #9C5B42",
"D  c #A64B42",
"F  c #BF4547",
"G  c #B64745",
"H  c #A55445",
"J  c #976040",
"K  c #986045",
"L  c #9F6448",
"P  c #9D6D4A",
"I  c #927957",
"U  c #AB6445",
"Y  c #AF6847",
"T  c #A26B47",
"R  c #B06947",
"E  c #BB6F40",
"W  c #B26B48",
"Q  c #AE764C",
"!  c #BD7040",
"~  c #B77D4E",
"^  c #AC6D52",
"/  c #AC7157",
"(  c #AA7855",
")  c #B97652",
"_  c #BC7953",
"`  c #B17350",
"'  c #C24648",
"]  c #C3794C",
"[  c #C47446",
"{  c #DF7E4C",
"}  c #E77A49",
"|  c #E87F4F",
" . c #BD814D",
".. c #AC865D",
"X. c #B2855C",
"o. c #B88352",
"O. c #978767",
"+. c #9A8A69",
"@. c #A28661",
"#. c #A58963",
"$. c #BF9267",
"%. c #BA9B6F",
"&. c #B7A27B",
"*. c #B9A47D",
"=. c #C4894C",
"-. c #C5874A",
";. c #CD8F54",
":. c #C08059",
">. c #C18E56",
",. c #D58C53",
"<. c #D28650",
"1. c #D79652",
"2. c #F38447",
"3. c #F58B4B",
"4. c #FC914E",
"5. c #E59656",
"6. c #EB9B57",
"7. c #EE9E58",
"8. c #ECA05A",
"9. c #FCAA5C",
"0. c #F6A85A",
"q. c #FFB15E",
"w. c #C28661",
"e. c #C49B6F",
"r. c #D79C6E",
"t. c #C39F71",
"y. c #EC9765",
"u. c #C6A173",
"i. c #CBA576",
"p. c #D6AC79",
"a. c #D8AE7A",
"s. c #DFB27C",
"d. c #EDAA65",
"f. c #E6A462",
"g. c #F7AF67",
"h. c #FFB461",
"j. c #FEB76C",
"k. c #FFB96C",
"l. c #E6AF7B",
"z. c #EAA270",
"x. c #E5B17D",
"c. c #EBB57F",
"v. c #FBBD77",
"b. c #F1BE7F",
"n. c #FEC17B",
"m. c #C7AF84",
"M. c #DAB386",
"N. c #EDB781",
"B. c #EFB881",
"V. c #E1BF8E",
"C. c #EDBE8B",
"Z. c #E2C08E",
"A. c #F5C38A",
"S. c #FBC68A",
"D. c #F4C88D",
"F. c #FFCC8D",
"G. c #FBC583",
"H. c #E3C696",
"J. c #ECCB97",
"K. c #EDCC98",
"L. c #F4CB91",
"P. c #FDCF91",
"I. c #EED19E",
"U. c #FFD292",
"Y. c #F3D49E",
"T. c #F5D6A0",
"R. c #F8D7A1",
/* pixels */
"F.F.F.F.F.F.F.S.F.P.U.i.7   X o o .   8 i.U.U.F.F.F.F.F.F.F.F.F.",
"F.F.F.S.F.F.F.F.F.A.a...0 : : , > : : 0 #.a.A.F.F.F.F.F.F.S.F.F.",
"F.F.F.F.F.F.F.F.F.p.s 0 l z ! z ! ! z l 0 s p.P.F.F.F.F.F.F.F.F.",
"F.F.F.F.F.F.F.F.P.e.1 @ z 4.4.4.4.4.4.z @ 1 t.U.F.F.F.F.F.F.S.F.",
"F.F.F.F.F.F.F.F.U.u.1 - z 4.4.3.3.4.4.z @ 1 u.U.P.F.F.F.F.F.F.S.",
"F.F.F.F.F.F.F.A.a.#.p p [ 2.2.2.2.2.2.[ r p #.a.A.F.F.F.F.F.F.F.",
"F.F.F.F.F.F.U.a.s p +.e.{ c c c v v v { e.+.p s a.P.F.F.S.F.F.F.",
"F.F.F.F.P.A.p.I # 6 *.A.y.} } x x c } y.A.*.6 # I a.A.F.F.F.F.F.",
"F.F.F.F.U.a.s # O 6 *.Y.A.z.} x x } z.A.Y.&.6 O # s a.P.F.F.F.F.",
"F.F.F.A.p.+.0 5 6 d m.Y.Y.C.y.{ { y.C.Y.T.m.d 6 6 p +.p.A.F.F.F.",
"F.F.P.p.s u O.*.&.m.H.I.I.J.C.N.N.C.J.I.I.H.m.&.*.+.0 s p.U.F.F.",
"P.A.p...u a m.R.R.Y.D.L.K.I.I.I.I.I.I.K.L.D.Y.T.Y.m.a u @.p.G.U.",
"U.p.s 0 O.m.H.Y.Y.L.v.v.J.I.I.I.I.I.I.J.n.v.L.Y.Y.K.m.+.u s p.U.",
"u...p a m.T.I.K.Z.s.f.d.n.D.D.D.D.D.D.b.d.f.s.V.K.Y.Y.m.a u #.i.",
"8 p +.m.H.Y.T.H.t.X.o.;.d.k.k.j.j.j.j.d.;.o.X.t.V.I.Y.H.m.+.p 7 ",
"  6 *.Y.T.K.V.i...P P Q ;.5.6.8.8.6.6.,.Q P T ..i.Z.K.Y.Y.*.6   ",
". 8 *.T.T.V.t.X.( P J S U W ~ o.o.~ W T S S P ( X.e.V.T.T.*.8 . ",
". 8 &.T.T.M.X.P T T H D D H L P P L H D D H T T T #.M.T.Y.&.8 . ",
". 8 &.Y.Y.M./ A A H ' m m F H A A H F m B ' H A A / M.T.Y.&.8 . ",
". 8 &.T.Y.M./ h w h M Z C B F D D G B C Z M h q h ^ M.T.T.&.8 . ",
". 8 *.T.T.M.^ q * ; n Z C V B ' m B V Z Z n ; - q / M.T.T.&.8 X ",
". 7 %.P.I.M./ q * = f n V C C C C C C B n f & : q / M.Y.U.%.7 X ",
". 7 o.n.L.M./ h e 4 = 2 n Z C C V C Z n 2 = 4 e h / M.L.n.>.> X ",
". > =.k.G.N.o.U H e * & f n B Z Z N n f & * e H U o.x.G.k.-.> X ",
". , =.h.k.g.7.<.U h e < % 3 n Z Z n 2 & 4 q h U <.y.g.h.h.=.>   ",
"7 t  .7.9.q.q.7.] R W l 9 < g b b g < 9 J W R ] 8.q.q.9.7. .t 7 ",
"i.$.^ ] 6.q.q.9.8.5.5.5.;.T < + + < T ;.5.5.5.7.9.q.q.6.] ` $.u.",
"P.b.:._ ,.5.5.7.9.q.q.q.h.1.y , > y 1.h.h.q.q.9.7.5.5.,.) w.B.U.",
"P.S.c.r.) U U ] 6.q.q.q.q.0.1.=.=.1.0.q.q.q.q.7.] U U ) r.N.S.F.",
"F.F.U.B.:.^ ^ _ ,.6.5.5.5.5.5.6.6.6.5.5.5.5.5.,.) ^ ^ w.c.F.F.F.",
"F.F.F.S.c.l.l.r._ Y Y Y Y W R W W Y Y Y R Y Y _ r.l.l.c.S.F.F.F.",
"F.F.F.F.F.U.U.x.^ j j k k k k k k k k k k j j ^ x.U.U.U.F.F.F.F."
};
