/* XPM */
static char *result[] = {
/* columns rows colors chars-per-pixel */
"32 32 130 2 ",
"   c #0C1718",
".  c #0E1819",
"X  c #141A1B",
"o  c #2F1F1C",
"O  c #20211D",
"+  c #34201E",
"@  c #3F231E",
"#  c #151C21",
"$  c #191F22",
"%  c #221F20",
"&  c #1C2224",
"*  c #1B2927",
"=  c #1E2229",
"-  c #1E2C2A",
";  c #21242A",
":  c #232A2A",
">  c #282B2C",
",  c #3F2928",
"<  c #3B3024",
"1  c #2B2B36",
"2  c #2F2E39",
"3  c #312F3A",
"4  c #2D3432",
"5  c #2C3A35",
"6  c #353336",
"7  c #383236",
"8  c #34323B",
"9  c #3B333A",
"0  c #3C3A3C",
"q  c #42241F",
"w  c #432A21",
"e  c #473325",
"r  c #493827",
"t  c #43362C",
"y  c #4A372F",
"u  c #4A3928",
"i  c #50342C",
"p  c #443D34",
"a  c #403D3B",
"s  c #53373D",
"d  c #543938",
"f  c #692E23",
"g  c #7D3327",
"h  c #603A3F",
"j  c #464035",
"k  c #4B4435",
"l  c #464639",
"z  c #494539",
"x  c #47483B",
"c  c #484A3C",
"v  c #3A3642",
"b  c #3E3A44",
"n  c #413C44",
"m  c #5B3E42",
"M  c #454344",
"N  c #4A4547",
"B  c #444846",
"V  c #484A47",
"C  c #474349",
"Z  c #4B4549",
"A  c #4E494A",
"S  c #524447",
"D  c #514D4D",
"F  c #475246",
"G  c #475549",
"H  c #4C554D",
"J  c #475B4F",
"K  c #495B4E",
"L  c #52514F",
"P  c #56584D",
"I  c #4E5E52",
"U  c #545451",
"Y  c #545B53",
"T  c #585F57",
"R  c #644745",
"E  c #614847",
"W  c #684E48",
"Q  c #735149",
"!  c #715949",
"~  c #4F6053",
"^  c #596054",
"/  c #566459",
"(  c #5A675A",
")  c #5C6A5D",
"_  c #5E705F",
"`  c #79664B",
"'  c #7A684C",
"]  c #606458",
"[  c #716655",
"{  c #7B6252",
"}  c #776D5A",
"|  c #7A6F5C",
" . c #5F7160",
".. c #607361",
"X. c #6B7461",
"o. c #893B31",
"O. c #A73D2B",
"+. c #AA3F2D",
"@. c #934537",
"#. c #96463C",
"$. c #944C3A",
"%. c #905F38",
"&. c #B6422E",
"*. c #AE4431",
"=. c #AD4D32",
"-. c #B24637",
";. c #B14538",
":. c #B84E3B",
">. c #BB523D",
",. c #93613B",
"<. c #B9693D",
"1. c #D04831",
"2. c #E7613C",
"3. c #9D5142",
"4. c #A65F49",
"5. c #9A7F5D",
"6. c #BF7844",
"7. c #9C815E",
"8. c #9C8460",
"9. c #F8874B",
"0. c #C49F70",
"q. c #C6A171",
"w. c #CAA373",
"e. c #D5AC78",
"r. c #D8AE7A",
"t. c #F4C387",
"y. c #F5C388",
"u. c #FFCC8D",
"i. c #FFCF90",
"p. c #FFD191",
/* pixels */
"u.u.u.u.u.u.u.u.u.u.u.u.u.u.u.u.u.p.p.p.p.i.u.u.u.u.u.u.u.u.u.u.",
"u.u.u.u.u.u.y.u.u.u.u.p.u.u.p.t.r.0.0.q.0.e.y.u.i.u.u.u.u.u.u.u.",
"u.u.u.u.u.u.u.u.u.p.u.u.p.p.p.r.' k k k j ' r.p.p.u.u.u.u.u.u.u.",
"u.u.u.u.u.u.u.t.e.0.q.0.0.q.w.7.j $ $ $ # l 8.w.q.e.y.u.u.u.u.u.",
"u.u.u.u.u.u.p.r.` j j k k k k j a 0 0 0 0 a k k j ` r.p.u.u.u.u.",
"u.u.u.u.u.t.r.7.x * : : : : : 4 l H L U U M &   X p 7.e.t.u.u.u.",
"u.u.u.u.p.e.` l G K K K J K K H A L T ) ) H : $ 6 0 l ` r.p.u.u.",
"u.u.u.t.r.7.l 5 ~ ............) Y U ) ..) H 4 > 0 6 ; p 7.r.t.u.",
"u.u.p.r.` l F I ) ............) ) )  .) Y A M 6 > > 6 0 j ' r.u.",
"u.t.r.5.p 4 I ...._ .._ _ .._  . . . .( L D L V 6 4 M 0 $ j q.p.",
"p.e.' p 0 B / ...._ _ ...._ .._  . . .( L D / ( I K L 0 & k q.p.",
"p.0.j # 0 P )  ..._ .._ _  ._ .. . . .( Y Y ) ....) P 0 & k q.p.",
"p.0.j X 0 U ) .._ _ _ _ .._  ._  . . .] ) ) ] ....) L 0 & k w.p.",
"u.e.' l a N Y ) ......_  . ._ .. . ........... .) ^ L 0 & k w.p.",
"u.y.r.7.z > M Y ) ...._  . . ..._ _ .. . . . .) Y D D 0 & k 0.u.",
"u.p.p.w.j ; d W P K I ^ [ [ ) / ( ) ) ) ( ) ( T D D D 0 ; k q.p.",
"u.p.p.w.k + o.@.y : - y $.3.E C A L L L L U D D D Z A a $ k w.p.",
"u.y.r.7.x e *.*.q X o f &.;.h b C A A A S A Z A Z D A 0 = k q.i.",
"p.e.` x G ! :.O.q o g -.1.;.h b M A A A A A S A D A A 0 ; k q.p.",
"p.0.j * J | 4.$.y t *.4.:.#.S n C A A A A A Z A Z D D 0 & j q.p.",
"p.0.j * K X.} [ ^ ^ [ ` Q E S Z Z A A A A A A A A A D 0 X k 0.p.",
"p.e.` l F K / ) ) ) ( T L A Z A A A A A S A A A A N n 0 l ' e.u.",
"u.y.r.7.l 4 V U U U U L A Z Z Z A A A A Z D Z A D a : p 7.r.y.u.",
"u.p.p.e.` p 0 n n C C C C Z Z Z C C C C N C Z M n a p ' r.p.u.u.",
"u.u.u.t.r.5.p ; v b b b n n b b b b b b b n b 8 > j 7.r.y.u.u.u.",
"u.u.u.u.p.r.` p 7 3 v v n v v 9 s h m s 0 8 b 2 $ k w.p.p.u.u.u.",
"u.u.u.u.u.y.e.7.p = 3 n n b : w o.;.;.o., : b 0 & k w.p.u.u.u.u.",
"u.u.u.u.u.p.p.q.z # 2 n Z v = w =.2.2.=.w = 0 9 & j 0.u.u.u.u.u.",
"u.u.u.u.u.u.p.q.j # 2 b n 8 $ e <.9.9.<.e & 8 8 X j 0.p.u.u.u.u.",
"u.u.u.u.u.u.p.e.' p 7 8 v 3 $ < %.6.6.%.t = 1 6 l ` e.u.u.u.u.u.",
"u.u.u.u.u.u.u.y.r.8.p ; 3 3 $ O < y u t 7 1 ; j 7.r.t.u.u.u.u.u.",
"u.u.u.u.u.u.u.p.p.w.k $ 3 3 = X .     $ 3 2 $ k w.p.u.u.u.u.u.u."
};
