/* XPM */
static char *result[] = {
/* columns rows colors chars-per-pixel */
"32 32 130 2 ",
"   c #0C1718",
".  c #0E1819",
"X  c #141A1B",
"o  c #2F1F1C",
"O  c #20211D",
"+  c #34201E",
"@  c #3F231E",
"#  c #151C21",
"$  c #191F22",
"%  c #221F20",
"&  c #1C2224",
"*  c #1B2927",
"=  c #1E2229",
"-  c #1E2C2A",
";  c #21242A",
":  c #232A2A",
">  c #282B2C",
",  c #3F2928",
"<  c #3B3024",
"1  c #2B2B36",
"2  c #2F2E39",
"3  c #312F3A",
"4  c #2D3432",
"5  c #2C3A35",
"6  c #353336",
"7  c #383236",
"8  c #34323B",
"9  c #3B333A",
"0  c #3C3A3C",
"q  c #42241F",
"w  c #432A21",
"e  c #473325",
"r  c #493827",
"t  c #43362C",
"y  c #4A372F",
"u  c #4A3928",
"i  c #50342C",
"p  c #443D34",
"a  c #403D3B",
"s  c #53373D",
"d  c #543938",
"f  c #692E23",
"g  c #7D3327",
"h  c #603A3F",
"j  c #464035",
"k  c #4B4435",
"l  c #464639",
"z  c #494539",
"x  c #47483B",
"c  c #484A3C",
"v  c #3A3642",
"b  c #3E3A44",
"n  c #413C44",
"m  c #5B3E42",
"M  c #454344",
"N  c #4A4547",
"B  c #444846",
"V  c #484A47",
"C  c #474349",
"Z  c #4B4549",
"A  c #4E494A",
"S  c #524447",
"D  c #514D4D",
"F  c #475246",
"G  c #475549",
"H  c #4C554D",
"J  c #475B4F",
"K  c #495B4E",
"L  c #52514F",
"P  c #56584D",
"I  c #4E5E52",
"U  c #545451",
"Y  c #545B53",
"T  c #585F57",
"R  c #644745",
"E  c #614847",
"W  c #684E48",
"Q  c #735149",
"!  c #715949",
"~  c #4F6053",
"^  c #596054",
"/  c #566459",
"(  c #5A675A",
")  c #5C6A5D",
"_  c #5E705F",
"`  c #79664B",
"'  c #7A684C",
"]  c #606458",
"[  c #716655",
"{  c #7B6252",
"}  c #776D5A",
"|  c #7A6F5C",
" . c #5F7160",
".. c #607361",
"X. c #6B7461",
"o. c #893B31",
"O. c #A73D2B",
"+. c #AA3F2D",
"@. c #934537",
"#. c #96463C",
"$. c #944C3A",
"%. c #905F38",
"&. c #B6422E",
"*. c #AE4431",
"=. c #AD4D32",
"-. c #B24637",
";. c #B14538",
":. c #B84E3B",
">. c #BB523D",
",. c #93613B",
"<. c #B9693D",
"1. c #D04831",
"2. c #E7613C",
"3. c #9D5142",
"4. c #A65F49",
"5. c #9A7F5D",
"6. c #BF7844",
"7. c #9C815E",
"8. c #9C8460",
"9. c #F8874B",
"0. c #C49F70",
"q. c #C6A171",
"w. c #CAA373",
"e. c #D5AC78",
"r. c #D8AE7A",
"t. c #F4C387",
"y. c #F5C388",
"u. c #FFCC8D",
"i. c #FFCF90",
"p. c #FFD191",
/* pixels */
"u.u.u.u.u.u.u.u.u.u.i.p.p.p.p.i.u.u.u.u.u.u.u.u.u.u.u.u.u.u.u.u.",
"u.u.u.u.u.u.u.u.i.y.e.0.0.q.q.e.y.i.i.u.i.u.u.u.u.u.u.u.u.u.u.u.",
"u.u.u.u.u.u.u.u.p.r.` k k k k ` e.i.p.i.i.i.u.u.u.u.u.u.u.u.u.u.",
"u.u.u.u.u.t.e.q.w.8.j # # & # k 7.w.w.0.0.0.0.e.t.u.u.u.u.u.u.u.",
"u.u.u.i.p.r.` j k k a 0 0 0 0 a j k k k k j k ` r.i.u.u.u.u.u.y.",
"u.u.i.y.r.7.j X . & M U U U S M 4 : : : : - * x 7.r.y.u.u.u.u.u.",
"u.u.p.r.` j a 6 # : H ) ) ^ D A H J K J K K K F l ` r.i.u.u.u.u.",
"u.t.r.8.j : 6 6 > 4 I ) ..) Y Y )  ...........~ 5 l 7.e.t.u.u.u.",
"i.e.` j 0 6 > > 6 M A Y ) ) ) )  ............._ ~ F l ` e.p.u.u.",
"i.0.z $ b M 6 4 V P A L ( ...... ._ _ .._ _ _ ....I 4 p 5.r.t.u.",
"p.0.k $ 0 L H ~ / T D L (  . . . . . ._  ._ _ ..../ V 0 p ' e.i.",
"p.w.k & 0 U ) ....) Y P )  . . . . ._ .._ .. . ...) P 0 # j 0.p.",
"i.q.k ; 0 P ) ...._ ) ) )  . . . . . . . . . . ...) P 0 # j q.p.",
"i.w.k & 0 L ^ ) _  . . . . . . . . ._  . . ... .) Y B 0 j ' e.u.",
"i.q.k = 0 A U Y )  . . . . . . ... . . ._  ...) Y M > k 7.r.y.u.",
"p.q.k = 0 S A D ^ ) ) ) ) ( ) ( / ] [ [ ^ J I P W d ; k w.p.p.u.",
"p.w.k & 0 A D A D U L L L L U D B E 3.$.t - - u @.o.+ k w.p.p.u.",
"p.w.k & 0 A A A A A S Z A A A Z b h -.-.f o X q +.*.i c 7.r.y.u.",
"i.q.k & 0 D A A A A Z A Z A A n b h -.1.-.o.+ @ +.>.! G c ` e.i.",
"p.q.k & 0 D A A A A A A A A A Z n m #.:.>.$.t t @.4.} J * j 0.p.",
"p.q.k # 0 S A A A Z A A A A A Z Z S E Q { [ T ^ [ } X.J * j 0.i.",
"i.e.` j 0 b V S A A A A A A Z A A A A A / ) ) ) ) / J F l ` e.i.",
"u.y.r.8.p > n D A D Z A D A A A A A Z A A U U U U B 4 l 7.r.y.u.",
"u.i.p.r.` k p n n n Z Z n Z Z n Z Z C Z C Z C M 0 0 j ` r.i.i.u.",
"u.u.i.y.r.5.z > 8 b n n b b b b n n n b n n n 8 - p 7.e.y.i.u.u.",
"u.u.u.u.p.w.k # 3 b 8 9 m m m s 9 3 b b v v 3 6 p ` r.p.u.u.u.u.",
"u.u.u.u.i.w.k & 0 v > , o.;.;.o., ; b Z n 3 = p 5.r.y.i.u.u.u.u.",
"u.u.u.u.i.0.k $ 0 v & w =.2.2.=.w = b n n 2 # k q.p.i.u.u.u.u.u.",
"u.u.u.u.i.0.j # 8 6 $ e <.9.9.<.e & 3 b b 2 # j q.u.u.u.u.u.u.u.",
"u.u.u.u.u.e.' p 6 1 = t ,.6.6.%., & 2 v 8 6 p ` e.u.u.u.u.u.u.u.",
"u.u.u.u.u.y.r.7.j = 1 7 t t u < O & 8 8 ; j 7.r.y.u.u.u.u.u.u.u.",
"u.u.u.u.u.p.p.w.k # 3 3 &       X = 3 2 & k w.p.i.u.u.u.y.u.u.u."
};
