/* XPM */
static char *result[] = {
/* columns rows colors chars-per-pixel */
"32 32 95 2 ",
"   c #081517",
".  c #0D1618",
"X  c #0D181A",
"o  c #131B1B",
"O  c #371E1B",
"+  c #1F221F",
"@  c #3E231E",
"#  c #161F20",
"$  c #191F22",
"%  c #1B2124",
"&  c #1F2926",
"*  c #1E2A28",
"=  c #212420",
"-  c #202927",
";  c #24262C",
":  c #222C2A",
">  c #2A2C2D",
",  c #3F2A29",
"<  c #26302C",
"1  c #3F3B2F",
"2  c #302F39",
"3  c #2D3232",
"4  c #2C3A35",
"5  c #313133",
"6  c #35323C",
"7  c #3C323B",
"8  c #343E38",
"9  c #3C3A3D",
"0  c #402B29",
"q  c #443F36",
"w  c #40353C",
"e  c #403D3B",
"r  c #53383E",
"t  c #38473F",
"y  c #454134",
"u  c #4C4436",
"i  c #464639",
"p  c #4A493B",
"a  c #5E4233",
"s  c #614334",
"d  c #3B3643",
"f  c #3E3945",
"g  c #413C44",
"h  c #653F41",
"j  c #3F4241",
"k  c #3E4B42",
"l  c #454145",
"z  c #4B4547",
"x  c #454846",
"c  c #444048",
"v  c #4C4649",
"b  c #4E484A",
"n  c #5F4342",
"m  c #514C4D",
"M  c #475246",
"N  c #47534A",
"B  c #4C564B",
"V  c #4A5A4E",
"C  c #52514F",
"Z  c #4E5E51",
"A  c #535451",
"S  c #555A53",
"D  c #585E56",
"F  c #6D4744",
"G  c #4F6053",
"H  c #586057",
"J  c #576558",
"K  c #5B665A",
"L  c #5C6A5C",
"P  c #5F705F",
"I  c #79664C",
"U  c #7B694E",
"Y  c #5F7160",
"T  c #606F60",
"R  c #617362",
"E  c #8C3F2F",
"W  c #893D33",
"Q  c #A53E2D",
"!  c #8D4034",
"~  c #B54A3A",
"^  c #DF4E35",
"/  c #9B7F5C",
"(  c #9C815E",
")  c #A6835E",
"_  c #9E8460",
"`  c #C49F70",
"'  c #C6A071",
"]  c #CBA473",
"[  c #D5AC79",
"{  c #D8AE7A",
"}  c #F3C287",
"|  c #F4C388",
" . c #FFCC8E",
".. c #FFCF90",
"X. c #FFD291",
/* pixels */
" . ...X.X.X.X... . . . . . . . . . . . . . . . . . . . . . . . .",
" .} [ ` ' ` ` [ | X. ... . ... . . ... . ... . . . . . . . . . .",
"..[ U u u u u I [ X.X. .X. .X............... . . . . . . . . . .",
"X.] u X % * & i ( ] ] ` ' ` ` ` ` ` ` ` ` ` ` [ }  . . . . . . .",
"X.' u % t V Z B p u u u u u u u u u u u u y y I { .... .|  . . .",
"] / q : V R T V 3 $ o - & : * : : : & : : & * p ( { |  . . . . .",
"u y + : V P D b g 9 7 j N V V V V V V V V V V M i I {  . . . . .",
". o - 8 Z H m m C A A S K L R R P R R R R R R G 4 i / [ }  . . .",
". = t G A m b m H L L H S S L R Y R R R Y R R L G M i I [ .. . .",
"o < G T D C m C L Y R L A b K Y Y Y P Y Y P Y R R V 3 q / { |  .",
"o < G R L H C C L Y R L C C K Y Y Y P Y Y Y P R R J x 9 y I [ ..",
". & i G Z V b C H K L H A S L Y P Y Y Y Y Y Y Y R L S 9 % u ` ..",
". o & < < 3 l b b A C A H L P Y Y Y Y Y P Y Y Y R L C 9 $ u ` ..",
"u q = X + > g b C A C S L Y Y Y Y Y R P Y P Y P L H m 9 % u ' X.",
"] ( y + 5 i z A H K L L Y Y Y Y Y Y Y Y R R R L S C m 9 & u ] ..",
"X.] u + 9 m b m H L L K L L L K L K L L K L L D m b m 9 % u ` ..",
"X.] u = g b b m C A A A A A A A C C C C m A C m m b m 9 % u ] ..",
"..` p % 9 b b b v v h m g m c h v v b b b v b b b b b 9 % u ] ..",
"X.] u % 9 m b b b v m g m m m m v b b v v b b b b b b e % u ` ..",
"..` u $ 9 b b b b b m m g b g m m b b b b b b b b b m w % u ` X.",
"X.` u $ 9 b b b b v m v b b b m v m b b b b b b v m m 9 $ u ` ..",
"..[ U q e g b b m v v b b m g m v v b b b b b b m v g e y U [ ..",
"..| { _ i > g m b m m v m m b m m b b b v v b m b g > q _ { | ..",
" ...X.] i $ 2 g g v v c g v g v l z l z z z z g g 5 # u ] X... .",
" ...X.] p . % : d g g g d g f f f f g f f f g 6 : o . u ] X. . .",
" .| [ ) s @ @ , g g d d d g g f g f g g f f f d 0 @ @ r ) { |  .",
"..[ I a E ~ Q W h g g d g h v v v g z g f f j n ! ~ Q E a I [ X.",
"..` q O Q ^ ^ ~ h g d g g g v g v b v c f d f F ~ ^ ^ Q @ y ` X.",
"X.' y @ Q ^ ^ ~ h g g d g d g g g f f f d d d F ~ ^ ^ ! @ t `  .",
"..[ I a E Q Q W g d d d d d d 2 2 d d d d d d r E Q ~ ! a I [  .",
" .} { ) a @ O , 7 d d d d 2 ; $ $ ; 2 d d d 9 7 @ @ @ a ) { }  .",
" ...X.] u     # 2 d g d d 2 $ o o $ 2 d d d d 3 +     u ]  . . ."
};
