/* XPM */
static char *result[] = {
/* columns rows colors chars-per-pixel */
"32 32 170 2 ",
"   c #071012",
".  c #0D1516",
"X  c #0C1718",
"o  c #0F1819",
"O  c #10191A",
"+  c #2F2521",
"@  c #312622",
"#  c #332824",
"$  c #372E2A",
"%  c #38302C",
"&  c #432D27",
"*  c #423F3B",
"=  c #474537",
"-  c #4A4334",
";  c #464439",
":  c #48463B",
">  c #48483F",
",  c #544436",
"<  c #5A4637",
"1  c #694335",
"2  c #744436",
"3  c #7C4638",
"4  c #7A4637",
"5  c #4B4A44",
"6  c #4A4E4C",
"7  c #494F50",
"8  c #4B5151",
"9  c #605744",
"0  c #685A46",
"q  c #645C4D",
"w  c #685F4F",
"e  c #655A46",
"r  c #635F54",
"t  c #6A634F",
"y  c #766449",
"u  c #79684D",
"i  c #766347",
"p  c #686358",
"a  c #726D65",
"s  c #72787B",
"d  c #884E3D",
"f  c #934E3C",
"g  c #95513E",
"h  c #98523F",
"j  c #885E4F",
"k  c #865C4D",
"l  c #975340",
"z  c #995642",
"x  c #9E5B46",
"c  c #885F50",
"v  c #A3634B",
"b  c #AD694E",
"n  c #AA6C55",
"m  c #B36F53",
"M  c #AB7156",
"N  c #AD735F",
"B  c #B57154",
"V  c #BC7657",
"C  c #BD7959",
"Z  c #B07B5B",
"A  c #AF7561",
"S  c #B17763",
"D  c #B37A61",
"F  c #C07E5D",
"G  c #A1835E",
"H  c #9A8969",
"J  c #A68A65",
"K  c #BB8863",
"L  c #BD9369",
"P  c #B39370",
"I  c #B6A077",
"U  c #B7A17A",
"Y  c #B9A37B",
"T  c #C0845E",
"R  c #C28762",
"E  c #C78A66",
"W  c #C88B67",
"Q  c #C3927C",
"!  c #C8957F",
"~  c #CD9A74",
"^  c #CBA26F",
"/  c #CCA474",
"(  c #D4A177",
")  c #D0A279",
"_  c #D6AC79",
"`  c #D8AF7B",
"'  c #D1B37B",
"]  c #EBB27D",
"[  c #A39584",
"{  c #AF9685",
"}  c #B19887",
"|  c #BAAA8C",
" . c #B9A582",
".. c #BFAC95",
"X. c #A4A4A2",
"o. c #C5AE84",
"O. c #D1A48E",
"+. c #D7AC80",
"@. c #C7B085",
"#. c #D4B782",
"$. c #D7B78E",
"%. c #DBBD8D",
"&. c #DCB488",
"*. c #C1AF9D",
"=. c #C1B09E",
"-. c #DCBF90",
";. c #DEB99C",
":. c #E1B989",
">. c #C3B3A2",
",. c #C4B6A9",
"<. c #D3BFAC",
"1. c #C1BDB3",
"2. c #E3BFA9",
"3. c #DBC093",
"4. c #DDC59D",
"5. c #F5C488",
"6. c #FFCC8E",
"7. c #EAC593",
"8. c #E4C896",
"9. c #EDCD97",
"0. c #E5C79F",
"q. c #EECE9A",
"w. c #FFCF90",
"e. c #EED09D",
"r. c #FFD392",
"t. c #F4D39D",
"y. c #D4C1AE",
"u. c #C5C2BE",
"i. c #E5C9A0",
"p. c #E5C1AA",
"a. c #EAC9AB",
"s. c #F1D3A4",
"d. c #F8D7A0",
"f. c #F3D6AA",
"g. c #F7D8AA",
"h. c #ECCBB3",
"j. c #E6D5B6",
"k. c #F4D7B0",
"l. c #F4DBB4",
"z. c #F2D6B8",
"x. c #F5DCBD",
"c. c #F9DEBF",
"v. c #F9DBB2",
"b. c #F8E0B8",
"n. c #C4C7C8",
"m. c #C7C9CA",
"M. c #D5D7D8",
"N. c #D5D8D9",
"B. c #ECDFC7",
"V. c #F5DBC4",
"C. c #FADFC2",
"Z. c #F5E4C7",
"A. c #FCE1C2",
"S. c #F0E0CA",
"D. c #FDE3CB",
"F. c #FBE8CA",
"G. c #FBE7D0",
"H. c #FFEAD4",
"J. c #F4E8D8",
"K. c #FDEBDA",
"L. c #F4EDE1",
"P. c #FEEFE2",
"I. c #FDF3E5",
"U. c #F7F3EA",
"Y. c #FCF5EA",
"T. c #FFF9ED",
"R. c #F5F6F6",
"E. c #FDF7F0",
"W. c #FFFAF5",
"Q. c #FFFEFD",
/* pixels */
"6.w.r./ -     . . . . o . . . . . . . . o X . . .     - / r.6.6.",
"w.5._ J p 7 7 6 > = = = = : : : : : : : = > : : 5 5 > t J _ 5.6.",
"r._ i r X.m.m.1.| I I I U U U Y U U U U P Y U  ...=.>.[ q i _ r.",
"/ J r s N.Q.Q.E.F.l.b.l.g.g.g.g.g.g.g.g.g.g.g.v.A.H.H.y.a q J / ",
"- p X.N.R.Q.Q.Q.E.T.T.I.D.C.C.C.A.c.A.C.A.A.C.C.C.G.G.V.y.[ t - ",
"  6 n.Q.Q.Q.Q.Q.T.U.Y.P.D.C.C.C.c.A.C.D.D.D.D.D.D.G.C.C.h.} ;   ",
"  5 ,.I.Q.Q.Q.T.Z.l.l.k.f.s.s.s.s.f.A.D.D.G.D.D.D.G.G.h.O.k $ X ",
". 5 =.K.Y.W.Q.U.l.9.9.9.e.q.9.q.s.f.C.D.D.C.V.C.C.V.h.O.v 2 + X ",
". 5 *.D.H.P.W.U.l.9.9.q.9.e.9.s.z.C.C.G.D.C.f.k.C.h.Q n z 2 @ o ",
". 5 =.D.D.K.W.Y.l.q.q.q.e.e.s.k.C.D.G.C.C.z.s.f.C.2.N l l 2 # o ",
". 5 =.F.D.H.W.I.l.q.q.q.q.s.v.C.C.G.D.C.f.s.q.f.C.2.S l l 2 # O ",
". 5 >.F.D.K.W.Y.l.q.q.e.s.k.C.G.G.C.C.l.s.q.9.f.C.2.S l l 2 # O ",
". 5 *.D.D.K.W.U.l.9.9.s.l.C.C.G.D.C.v.s.e.q.q.g.C.2.N f l 2 # o ",
". 5 >.G.D.K.W.Y.l.9.s.k.C.D.G.C.C.z.s.q.q.q.q.g.C.2.N l l 3 # O ",
". 5 =.F.D.K.W.I.l.e.l.C.C.G.D.C.k.s.q.e.q.q.q.f.C.2.N l l 2 # O ",
". 5 =.D.D.H.W.Y.x.f.Z.D.D.C.C.z.s.9.9.e.q.q.9.g.D.2.N l l 3 # O ",
". 5 >.D.D.H.W.E.D.C.A.D.D.C.f.s.q.q.q.q.q.q.q.f.C.2.A f h 2 @ O ",
". 5 *.G.H.I.W.W.P.K.K.K.K.J.b.g.f.s.s.f.f.s.s.l.C.h.Q n x 2 @ O ",
". 5 *.H.T.W.Q.Q.W.W.W.W.W.E.T.L.D.C.C.C.C.c.C.C.A.V.h.O.n 2 @ O ",
". 5 ,.Y.W.Q.Q.Q.U.L.L.L.L.L.K.J.V.z.z.z.z.z.z.x.D.D.G.h.Q k % X ",
". 6 1.Q.Q.Q.Q.U.j.4.4.4.4.4.4.4.-.-.-.-.-.-.-.0.x.G.G.C.h.{ * O ",
". 8 m.Q.Q.Q.U.B.3.' ' ' ' ' ' ' ' ' ' ' ' ' ' %.a.V.C.G.H.>.5 . ",
". 8 m.Q.Q.U.j.-.#.' ' ' ' ' ' ' #.' ' #.' ' ' #.%.i.V.G.H.>.5 . ",
". 6 1.T.T.B.$.^ / / / / / / ( ^ / / / / / / / / / +.;.a.a.{ : . ",
". > | b.b.0.~ K T R R T R R T T R R R R R R R R R D C S S j $ X ",
"  : Y t.t.:.E V V V F V V F F V C C C C C C C C F B x f h 2 @ X ",
"  : U d.t.:.E V V C F V F V V V C V C C C V C C F m x f z 2 @ X ",
"- e H @.8.7.( E F C V V V F F F C C C C C C C C m b x f 3 1 , - ",
"/ J 9 t o.t.7.` W F C F C C C C C C C C C C C B v x z 4 & , G / ",
"r._ y 0 P &.&.( D M m m m B B B B B m B B M B b x l z 3 < u ` r.",
"6.5._ L Z n M n x x x x x x x x x x x x x x x z l l l v K _ 5.w.",
"6.6.r.] n f f f l l l l l l g g l l g l l l l l l l l B ] w.w.6."
};
